<svg width="20" height="20" viewBox="0 0 20 20" fill="none" xmlns="http://www.w3.org/2000/svg">
<path d="M2.8 3H17.2C17.4122 3 17.6157 3.08194 17.7657 3.22781C17.9157 3.37367 18 3.5715 18 3.77778V16.2222C18 16.4285 17.9157 16.6263 17.7657 16.7722C17.6157 16.9181 17.4122 17 17.2 17H2.8C2.58783 17 2.38434 16.9181 2.23431 16.7722C2.08429 16.6263 2 16.4285 2 16.2222V3.77778C2 3.5715 2.08429 3.37367 2.23431 3.22781C2.38434 3.08194 2.58783 3 2.8 3ZM16.4 6.29622L10.0576 11.8184L3.6 6.27911V15.4444H16.4V6.29622ZM4.0088 4.55556L10.0488 9.73711L16.0016 4.55556H4.0088Z" fill="#E08282"/>
</svg>
