<svg width="20" height="20" viewBox="0 0 20 20" fill="none" xmlns="http://www.w3.org/2000/svg">
<path d="M11.1429 7.83333H15L14.5714 9.5H11.1429V17H9.42857V9.5H6V7.83333H9.42857V6.27333C9.42857 4.7875 9.588 4.24833 9.88629 3.705C10.1786 3.16817 10.6301 2.72917 11.1823 2.445C11.7411 2.155 12.2957 2 13.824 2C14.2714 2 14.664 2.04167 15 2.125V3.66667H13.824C12.6891 3.66667 12.3437 3.73167 11.9914 3.915C11.7309 4.05 11.5371 4.23833 11.3983 4.49167C11.2097 4.83417 11.1429 5.17 11.1429 6.27333V7.83333Z" fill="#E08282"/>
</svg>
