<svg width="64" height="64" viewBox="0 0 64 64" fill="none" xmlns="http://www.w3.org/2000/svg">
<rect opacity="0.8" width="64" height="64" rx="8" fill="#3A3A3B"/>
<path d="M39.3233 32L28.6667 24.895V39.105L39.3233 32ZM44.2933 32.6933L26.6283 44.47C26.5029 44.5535 26.3571 44.6014 26.2065 44.6086C26.0559 44.6158 25.9062 44.5821 25.7733 44.5109C25.6405 44.4398 25.5293 44.3339 25.4519 44.2046C25.3744 44.0753 25.3334 43.9274 25.3333 43.7767V20.2233C25.3334 20.0726 25.3744 19.9247 25.4519 19.7954C25.5293 19.6661 25.6405 19.5603 25.7733 19.4891C25.9062 19.418 26.0559 19.3842 26.2065 19.3914C26.3571 19.3986 26.5029 19.4465 26.6283 19.53L44.2933 31.3067C44.4075 31.3828 44.5011 31.4859 44.5658 31.6068C44.6305 31.7278 44.6644 31.8628 44.6644 32C44.6644 32.1372 44.6305 32.2722 44.5658 32.3932C44.5011 32.5141 44.4075 32.6172 44.2933 32.6933Z" fill="white"/>
</svg>
