<svg width="136" height="114" viewBox="0 0 136 114" fill="none" xmlns="http://www.w3.org/2000/svg">
<g opacity="0.5">
<circle cx="2" cy="2" r="2" fill="#E08282"/>
<circle cx="2" cy="24" r="2" fill="#E08282"/>
<circle cx="2" cy="46" r="2" fill="#E08282"/>
<circle cx="2" cy="68" r="2" fill="#E08282"/>
<circle cx="2" cy="90" r="2" fill="#E08282"/>
<circle cx="2" cy="112" r="2" fill="#E08282"/>
<circle cx="24" cy="2" r="2" fill="#E08282"/>
<circle cx="24" cy="24" r="2" fill="#E08282"/>
<circle cx="24" cy="46" r="2" fill="#E08282"/>
<circle cx="24" cy="68" r="2" fill="#E08282"/>
<circle cx="24" cy="90" r="2" fill="#E08282"/>
<circle cx="24" cy="112" r="2" fill="#E08282"/>
<circle cx="46" cy="2" r="2" fill="#E08282"/>
<circle cx="46" cy="24" r="2" fill="#E08282"/>
<circle cx="46" cy="46" r="2" fill="#E08282"/>
<circle cx="46" cy="68" r="2" fill="#E08282"/>
<circle cx="46" cy="90" r="2" fill="#E08282"/>
<circle cx="46" cy="112" r="2" fill="#E08282"/>
<circle cx="68" cy="2" r="2" fill="#E08282"/>
<circle cx="68" cy="24" r="2" fill="#E08282"/>
<circle cx="68" cy="46" r="2" fill="#E08282"/>
<circle cx="68" cy="68" r="2" fill="#E08282"/>
<circle cx="68" cy="90" r="2" fill="#E08282"/>
<circle cx="68" cy="112" r="2" fill="#E08282"/>
<circle cx="90" cy="2" r="2" fill="#E08282"/>
<circle cx="90" cy="24" r="2" fill="#E08282"/>
<circle cx="90" cy="46" r="2" fill="#E08282"/>
<circle cx="90" cy="68" r="2" fill="#E08282"/>
<circle cx="90" cy="90" r="2" fill="#E08282"/>
<circle cx="90" cy="112" r="2" fill="#E08282"/>
<circle cx="112" cy="2" r="2" fill="#E08282"/>
<circle cx="112" cy="24" r="2" fill="#E08282"/>
<circle cx="112" cy="46" r="2" fill="#E08282"/>
<circle cx="112" cy="68" r="2" fill="#E08282"/>
<circle cx="112" cy="90" r="2" fill="#E08282"/>
<circle cx="112" cy="112" r="2" fill="#E08282"/>
<circle cx="134" cy="2" r="2" fill="#E08282"/>
<circle cx="134" cy="24" r="2" fill="#E08282"/>
<circle cx="134" cy="46" r="2" fill="#E08282"/>
<circle cx="134" cy="68" r="2" fill="#E08282"/>
<circle cx="134" cy="90" r="2" fill="#E08282"/>
<circle cx="134" cy="112" r="2" fill="#E08282"/>
</g>
</svg>
