<svg width="20" height="20" viewBox="0 0 20 20" fill="none" xmlns="http://www.w3.org/2000/svg">
<path d="M9.5 16.6572L13.625 12.5565C14.4408 11.7455 14.9963 10.7122 15.2213 9.58731C15.4463 8.46243 15.3308 7.29648 14.8892 6.23688C14.4477 5.17729 13.7 4.27165 12.7408 3.63447C11.7815 2.9973 10.6537 2.65721 9.5 2.65721C8.3463 2.65721 7.21851 2.9973 6.25924 3.63447C5.29997 4.27165 4.55229 5.17729 4.11076 6.23688C3.66923 7.29648 3.55368 8.46243 3.77871 9.58731C4.00374 10.7122 4.55926 11.7455 5.375 12.5565L9.5 16.6572ZM9.5 19L4.19667 13.7279C3.14779 12.6852 2.43349 11.3567 2.14411 9.91037C1.85473 8.46408 2.00326 6.96497 2.57092 5.60259C3.13858 4.24022 4.09987 3.07578 5.33324 2.25653C6.5666 1.43728 8.01665 1 9.5 1C10.9834 1 12.4334 1.43728 13.6668 2.25653C14.9001 3.07578 15.8614 4.24022 16.4291 5.60259C16.9968 6.96497 17.1453 8.46408 16.8559 9.91037C16.5665 11.3567 15.8522 12.6852 14.8033 13.7279L9.5 19ZM9.5 10.1126C9.94203 10.1126 10.366 9.93807 10.6785 9.62735C10.9911 9.31663 11.1667 8.8952 11.1667 8.45578C11.1667 8.01635 10.9911 7.59493 10.6785 7.28421C10.366 6.97349 9.94203 6.79893 9.5 6.79893C9.05798 6.79893 8.63405 6.97349 8.32149 7.28421C8.00893 7.59493 7.83334 8.01635 7.83334 8.45578C7.83334 8.8952 8.00893 9.31663 8.32149 9.62735C8.63405 9.93807 9.05798 10.1126 9.5 10.1126ZM9.5 11.7695C8.61595 11.7695 7.7681 11.4204 7.14298 10.7989C6.51786 10.1775 6.16667 9.33463 6.16667 8.45578C6.16667 7.57693 6.51786 6.73407 7.14298 6.11263C7.7681 5.49119 8.61595 5.14207 9.5 5.14207C10.3841 5.14207 11.2319 5.49119 11.857 6.11263C12.4821 6.73407 12.8333 7.57693 12.8333 8.45578C12.8333 9.33463 12.4821 10.1775 11.857 10.7989C11.2319 11.4204 10.3841 11.7695 9.5 11.7695Z" fill="#E08282"/>
</svg>
