<svg width="16" height="13" viewBox="0 0 16 13" fill="none" xmlns="http://www.w3.org/2000/svg">
<path d="M11.0913 1.56286C10.485 1.56276 9.903 1.79567 9.47039 2.21147C9.03778 2.62727 8.78918 3.19273 8.7781 3.78616L8.75577 5.01612C8.75446 5.08216 8.73891 5.14718 8.71013 5.20692C8.68135 5.26666 8.64 5.31977 8.58878 5.36276C8.53756 5.40575 8.47764 5.43766 8.41294 5.45638C8.34824 5.4751 8.28023 5.48022 8.21337 5.4714L6.96824 5.30585C5.32988 5.08719 3.76011 4.34843 2.25415 3.12003C1.77716 5.7049 2.70881 7.49557 4.95259 8.87703L6.34608 9.73449C6.41229 9.77523 6.46729 9.83123 6.50628 9.89759C6.54527 9.96395 6.56706 10.0387 6.56974 10.1152C6.57241 10.1917 6.5559 10.2677 6.52164 10.3365C6.48737 10.4053 6.43641 10.4649 6.3732 10.51L5.10335 11.4182C5.85872 11.4642 6.5758 11.4314 7.17085 11.3159C10.9341 10.5802 13.4364 7.80794 13.4364 3.23483C13.4364 2.86154 12.6291 1.56286 11.0913 1.56286ZM7.18281 3.75727C7.19673 3.00449 7.43717 2.27247 7.87402 1.65284C8.31087 1.03321 8.92471 0.553526 9.6387 0.273835C10.3527 -0.00585647 11.1351 -0.0731215 11.8879 0.0804618C12.6408 0.234045 13.3306 0.601651 13.8711 1.13725C14.4382 1.13335 14.9208 1.27392 16 0.633556C15.7328 1.91428 15.6012 2.4703 15.0317 3.23483C15.0317 9.20268 11.2851 12.1046 7.48352 12.8473C4.87681 13.3564 1.0864 12.5201 0 11.4096C0.553567 11.3674 2.80293 11.1308 4.1031 10.1991C3.00314 9.48928 -1.37514 6.96688 1.50197 0.185304C2.85239 1.7292 4.22195 2.78033 5.60985 3.33791C6.53353 3.70885 6.76006 3.70104 7.18361 3.75805L7.18281 3.75727Z" fill="#E08282"/>
</svg>
